<?xml version="1.0" encoding="UTF-8"?>
<svg width="25px" height="25px" viewBox="0 0 25 25" version="1.1" xmlns="http://www.w3.org/2000/svg" xmlns:xlink="http://www.w3.org/1999/xlink">
    <title>apps/128/deepin-data-transfer</title>
    <defs>
        <filter x="-9.6%" y="-5.0%" width="119.2%" height="120.1%" filterUnits="objectBoundingBox" id="filter-1">
            <feOffset dx="0" dy="1" in="SourceAlpha" result="shadowOffsetOuter1"></feOffset>
            <feGaussianBlur stdDeviation="0.5" in="shadowOffsetOuter1" result="shadowBlurOuter1"></feGaussianBlur>
            <feColorMatrix values="0 0 0 0 0   0 0 0 0 0   0 0 0 0 0  0 0 0 0.20036604 0" type="matrix" in="shadowBlurOuter1" result="shadowMatrixOuter1"></feColorMatrix>
            <feMerge>
                <feMergeNode in="shadowMatrixOuter1"></feMergeNode>
                <feMergeNode in="SourceGraphic"></feMergeNode>
            </feMerge>
        </filter>
        <linearGradient x1="86.2503186%" y1="-10.1035075%" x2="22.0041484%" y2="103.525761%" id="linearGradient-2">
            <stop stop-color="#004CFF" offset="0%"></stop>
            <stop stop-color="#A112E3" offset="100%"></stop>
        </linearGradient>
        <linearGradient x1="50%" y1="0%" x2="50%" y2="99.0210473%" id="linearGradient-3">
            <stop stop-color="#FFFFFF" stop-opacity="0.297055971" offset="0%"></stop>
            <stop stop-color="#000000" stop-opacity="0.301394162" offset="100%"></stop>
        </linearGradient>
        <linearGradient x1="50%" y1="2.37536127%" x2="50%" y2="97.2180704%" id="linearGradient-4">
            <stop stop-color="#E9E9E9" offset="0%"></stop>
            <stop stop-color="#EBF3FF" offset="100%"></stop>
        </linearGradient>
        <path d="M10.5718708,8.4375 L17.9281292,8.4375 C18.9310877,8.4375 19.2947847,8.54192881 19.6614514,8.73802429 C20.0281181,8.93411977 20.3158802,9.22188192 20.5119757,9.58854858 C20.7080712,9.95521525 20.8125,10.3189123 20.8125,11.3218708 L20.8125,16.9906292 C20.8125,17.9935877 20.7080712,18.3572847 20.5119757,18.7239514 C20.3158802,19.0906181 20.0281181,19.3783802 19.6614514,19.5744757 C19.2947847,19.7705712 18.9310877,19.875 17.9281292,19.875 L10.5718708,19.875 C9.56891227,19.875 9.20521525,19.7705712 8.83854858,19.5744757 C8.47188192,19.3783802 8.18411977,19.0906181 7.98802429,18.7239514 C7.79192881,18.3572847 7.6875,17.9935877 7.6875,16.9906292 L7.6875,11.3218708 C7.6875,10.3189123 7.79192881,9.95521525 7.98802429,9.58854858 C8.18411977,9.22188192 8.47188192,8.93411977 8.83854858,8.73802429 C9.20521525,8.54192881 9.56891227,8.4375 10.5718708,8.4375 Z" id="path-5"></path>
        <filter x="-11.4%" y="-13.1%" width="122.9%" height="126.2%" filterUnits="objectBoundingBox" id="filter-6">
            <feGaussianBlur stdDeviation="1" in="SourceAlpha" result="shadowBlurInner1"></feGaussianBlur>
            <feOffset dx="0" dy="-1" in="shadowBlurInner1" result="shadowOffsetInner1"></feOffset>
            <feComposite in="shadowOffsetInner1" in2="SourceAlpha" operator="arithmetic" k2="-1" k3="1" result="shadowInnerInner1"></feComposite>
            <feColorMatrix values="0 0 0 0 0.0526150951   0 0 0 0 0.207551766   0 0 0 0 0.595175038  0 0 0 0.2 0" type="matrix" in="shadowInnerInner1"></feColorMatrix>
        </filter>
        <linearGradient x1="40.7675756%" y1="0%" x2="40.7675756%" y2="100%" id="linearGradient-7">
            <stop stop-color="#FFFFFF" stop-opacity="0.618392838" offset="0%"></stop>
            <stop stop-color="#00306B" stop-opacity="0.2" offset="100%"></stop>
        </linearGradient>
        <linearGradient x1="84.8747651%" y1="27.1796402%" x2="20.9329173%" y2="87.0362707%" id="linearGradient-8">
            <stop stop-color="#3631A5" offset="0%"></stop>
            <stop stop-color="#4E4EDF" offset="100%"></stop>
        </linearGradient>
    </defs>
    <g id="apps/128/deepin-data-transfer" stroke="none" fill="none" transform="translate(0.75, 0)">
        <g id="编组" filter="url(#filter-1)" stroke-width="1" fill-rule="evenodd" transform="translate(1.6875, 2.25)">
            <path d="M3.8458278,-4.4408921e-16 L14.9041722,9.06834139e-16 C16.2414503,-5.2689675e-16 16.7263797,0.139238417 17.2152686,0.400699056 C17.7041574,0.662159695 18.0878403,1.04584256 18.3493009,1.53473144 C18.6107616,2.02362033 18.75,2.50854969 18.75,3.8458278 L18.75,13.9666722 C18.75,15.3039503 18.6107616,15.7888797 18.3493009,16.2777686 C18.0878403,16.7666574 17.7041574,17.1503403 17.2152686,17.4118009 C16.7263797,17.6732616 16.2414503,17.8125 14.9041722,17.8125 L3.8458278,17.8125 C2.50854969,17.8125 2.02362033,17.6732616 1.53473144,17.4118009 C1.04584256,17.1503403 0.662159695,16.7666574 0.400699056,16.2777686 C0.139238417,15.7888797 8.8817842e-16,15.3039503 8.8817842e-16,13.9666722 L0,3.8458278 C0,2.50854969 0.139238417,2.02362033 0.400699056,1.53473144 C0.662159695,1.04584256 1.04584256,0.662159695 1.53473144,0.400699056 C2.02362033,0.139238417 2.50854969,-4.4408921e-16 3.8458278,-4.4408921e-16 Z" id="矩形" fill="url(#linearGradient-2)"></path>
            <path d="M14.9041722,0 C16.2414503,0 16.7263797,0.139238417 17.2152686,0.400699056 C17.7041574,0.662159695 18.0878403,1.04584256 18.3493009,1.53473144 C18.6107616,2.02362033 18.75,2.50854969 18.75,3.8458278 L18.75,13.9666722 C18.75,15.3039503 18.6107616,15.7888797 18.3493009,16.2777686 C18.0878403,16.7666574 17.7041574,17.1503403 17.2152686,17.4118009 C16.7263797,17.6732616 16.2414503,17.8125 14.9041722,17.8125 L3.8458278,17.8125 C2.50854969,17.8125 2.02362033,17.6732616 1.53473144,17.4118009 C1.04584256,17.1503403 0.662159695,16.7666574 0.400699056,16.2777686 C0.139238417,15.7888797 0,15.3039503 0,13.9666722 L0,3.8458278 C0,2.50854969 0.139238417,2.02362033 0.400699056,1.53473144 C0.662159695,1.04584256 1.04584256,0.662159695 1.53473144,0.400699056 C2.02362033,0.139238417 2.50854969,0 3.8458278,0 L14.9041722,0 Z M3.8458278,0.1875 C2.65490874,0.1875 2.14788562,0.285410682 1.62315623,0.56603903 C1.16694268,0.810024707 0.810024707,1.16694268 0.56603903,1.62315623 C0.285410682,2.14788562 0.1875,2.65490874 0.1875,3.8458278 L0.1875,13.9666722 C0.1875,15.1575913 0.285410682,15.6646144 0.56603903,16.1893438 C0.810024707,16.6455573 1.16694268,17.0024753 1.62315623,17.246461 C2.14788562,17.5270893 2.65490874,17.625 3.8458278,17.625 L14.9041722,17.625 C16.0950913,17.625 16.6021144,17.5270893 17.1268438,17.246461 C17.5830573,17.0024753 17.9399753,16.6455573 18.183961,16.1893438 C18.4645893,15.6646144 18.5625,15.1575913 18.5625,13.9666722 L18.5625,3.8458278 C18.5625,2.65490874 18.4645893,2.14788562 18.183961,1.62315623 C17.9399753,1.16694268 17.5830573,0.810024707 17.1268438,0.56603903 C16.6021144,0.285410682 16.0950913,0.1875 14.9041722,0.1875 L3.8458278,0.1875 Z" id="矩形" fill="url(#linearGradient-3)" fill-rule="nonzero"></path>
            <g id="矩形">
                <use fill="url(#linearGradient-4)" fill-rule="evenodd" xlink:href="#path-5"></use>
                <use fill="black" fill-opacity="1" filter="url(#filter-6)" xlink:href="#path-5"></use>
            </g>
            <path d="M17.9281292,8.4375 C18.9310877,8.4375 19.2947847,8.54192881 19.6614514,8.73802429 C20.0281181,8.93411977 20.3158802,9.22188192 20.5119757,9.58854858 C20.7080712,9.95521525 20.8125,10.3189123 20.8125,11.3218708 L20.8125,16.9906292 C20.8125,17.9935877 20.7080712,18.3572847 20.5119757,18.7239514 C20.3158802,19.0906181 20.0281181,19.3783802 19.6614514,19.5744757 C19.2947847,19.7705712 18.9310877,19.875 17.9281292,19.875 L10.5718708,19.875 C9.56891227,19.875 9.20521525,19.7705712 8.83854858,19.5744757 C8.47188192,19.3783802 8.18411977,19.0906181 7.98802429,18.7239514 C7.79192881,18.3572847 7.6875,17.9935877 7.6875,16.9906292 L7.6875,11.3218708 C7.6875,10.3189123 7.79192881,9.95521525 7.98802429,9.58854858 C8.18411977,9.22188192 8.47188192,8.93411977 8.83854858,8.73802429 C9.20521525,8.54192881 9.56891227,8.4375 10.5718708,8.4375 L17.9281292,8.4375 Z M10.5718708,8.625 C9.68575803,8.625 9.3128012,8.69702129 8.92697337,8.90336427 C8.59298204,9.08198478 8.33198478,9.34298204 8.15336427,9.67697337 C7.94702129,10.0628012 7.875,10.435758 7.875,11.3218708 L7.875,16.9906292 C7.875,17.876742 7.94702129,18.2496988 8.15336427,18.6355266 C8.33198478,18.969518 8.59298204,19.2305152 8.92697337,19.4091357 C9.3128012,19.6154787 9.68575803,19.6875 10.5718708,19.6875 L17.9281292,19.6875 C18.814242,19.6875 19.1871988,19.6154787 19.5730266,19.4091357 C19.907018,19.2305152 20.1680152,18.969518 20.3466357,18.6355266 C20.5529787,18.2496988 20.625,17.876742 20.625,16.9906292 L20.625,11.3218708 C20.625,10.435758 20.5529787,10.0628012 20.3466357,9.67697337 C20.1680152,9.34298204 19.907018,9.08198478 19.5730266,8.90336427 C19.1871988,8.69702129 18.814242,8.625 17.9281292,8.625 L10.5718708,8.625 Z" id="矩形" fill="url(#linearGradient-7)" fill-rule="nonzero"></path>
            <path d="M18.2903777,10.6406071 C18.3772108,10.7468603 18.3782168,10.8992772 18.2927938,11.0066673 L13.8966408,16.5316221 L15.2201508,17.9438386 L10.6356408,17.5427459 L10.9948702,13.4367344 L12.1426408,14.6606221 L17.9490393,10.5934658 C18.0576139,10.5173932 18.2064865,10.5379536 18.2903777,10.6406071 Z" id="形状结合" fill="url(#linearGradient-8)" transform="translate(14.4959, 14.2457) rotate(85) translate(-14.4959, -14.2457)"></path>
        </g>
        <g id="Guide/128"></g>
    </g>
</svg>